<svg fill="#FFFFFF" xmlns="http://www.w3.org/2000/svg"  viewBox="0 0 24 24" width="24px" height="24px"><path d="M 8 3 C 5.243 3 3 5.243 3 8 L 3 16 C 3 18.757 5.243 21 8 21 L 16 21 C 18.757 21 21 18.757 21 16 L 21 8 C 21 5.243 18.757 3 16 3 L 8 3 z M 17 6 C 17.552 6 18 6.448 18 7 C 18 7.552 17.552 8 17 8 C 16.448 8 16 7.552 16 7 C 16 6.448 16.448 6 17 6 z M 12 7 C 14.757 7 17 9.243 17 12 C 17 14.757 14.757 17 12 17 C 9.243 17 7 14.757 7 12 C 7 9.243 9.243 7 12 7 z M 12 9 A 3 3 0 0 0 12 15 A 3 3 0 0 0 12 9 z"/></svg>